PathFileType	4	(X/Y/Z)	./resultDataOpenSim/trcMotMarkerGrf/sub06/qtm-02-07.trc
DataRate	CameraRate	NumFrames	NumMarkers	Units	OrigDataRate	OrigDataStartFrame	OrigNumFrames
250.000000	250.000000	8	24	m	250.000000	309	494
Frame#	Time	L.Toe.Tip			R.Toe.Tip			L.Ankle.Lat			R.Ankle.Lat			L.Ankle.Med			R.Ankle.Med			L.Heel			R.Heel			L.Knee.Lat			R.Knee.Lat			L.Knee.Med			R.Knee.Med			L.Thigh.Upper			R.Thigh.Upper			L.ASIS			R.ASIS			V.Sacral			L.Acromium			R.Acromium			C7			L.Elbow			R.Elbow			L.Wrist.Lat			R.Wrist.Lat
		X1	Y1	Z1	X2	Y2	Z2	X3	Y3	Z3	X4	Y4	Z4	X5	Y5	Z5	X6	Y6	Z6	X7	Y7	Z7	X8	Y8	Z8	X9	Y9	Z9	X10	Y10	Z10	X11	Y11	Z11	X12	Y12	Z12	X13	Y13	Z13	X14	Y14	Z14	X15	Y15	Z15	X16	Y16	Z16	X17	Y17	Z17	X18	Y18	Z18	X19	Y19	Z19	X20	Y20	Z20	X21	Y21	Z21	X22	Y22	Z22	X23	Y23	Z23	X24	Y24	Z24

309	1.232	0.35715601	0.098282333	-0.037743259	0.89493692	0.035895392	0.10039206	0.36847096	0.22464613	-0.084047066	0.7603258	0.059048733	0.13691806	0.38606623	0.23905607	-0.0028589374	0.7710196	0.082139183	0.049580433	0.32320269	0.28863674	-0.044138488	0.70069502	0.037893427	0.083697361	0.70683197	0.38502681	-0.11451374	0.81666292	0.44485559	0.16495714	0.71036668	0.37419679	0.0069166724	0.76826449	0.43190099	0.045613218	0.63924955	0.77590419	-0.10553198	0.69019821	0.79949349	0.23456952	0.72272402	0.82726234	-0.075162695	0.76510096	0.84871702	0.16709572	0.55746041	0.91521464	0.077073868	0.69721928	1.3257638	-0.11290969	0.69999386	1.2948651	0.2494198	0.62038036	1.3523902	0.070213461	0.67395993	1.0018337	-0.1838242	0.59671713	0.99642282	0.30119031	0.86850186	0.85107054	-0.15878231	0.71031213	0.7839728	0.34397273
310	1.236	0.37241324	0.09969249	-0.038083701	0.89482761	0.035912774	0.10048144	0.38199586	0.22613156	-0.084449465	0.76019737	0.059043269	0.13705443	0.39949721	0.24075485	-0.003353253	0.77093488	0.082351962	0.049783128	0.33585342	0.28971194	-0.044801217	0.70061781	0.037976652	0.083833519	0.71920479	0.38818288	-0.11480349	0.81808719	0.44509268	0.16542773	0.72295239	0.37706145	0.0067234387	0.76913021	0.43250536	0.046110662	0.64522586	0.77820499	-0.10522723	0.69485945	0.80058252	0.23493847	0.72836159	0.82932063	-0.07521895	0.77045495	0.85017857	0.16786308	0.56359638	0.91712621	0.077391953	0.70254469	1.3279847	-0.11301425	0.70625068	1.2972168	0.24923073	0.62630244	1.3543543	0.070276332	0.67794274	1.0044015	-0.18343027	0.60465249	0.99816659	0.30191534	0.87080634	0.85138209	-0.1599976	0.72099975	0.78687165	0.34338902
311	1.24	0.38781793	0.10090417	-0.038521124	0.8947344	0.035930304	0.10055278	0.39555685	0.22743844	-0.084858839	0.76006793	0.059084643	0.13719082	0.41299157	0.24221581	-0.0038425152	0.77087353	0.082576689	0.050009287	0.34851229	0.29048956	-0.045322697	0.70055059	0.038065062	0.083976846	0.73151891	0.39145603	-0.11502828	0.81926622	0.44534275	0.16593577	0.73547539	0.38006684	0.0065677707	0.77035045	0.433163	0.046356129	0.6513526	0.78051333	-0.10516357	0.69947849	0.80166508	0.23527674	0.73421863	0.83144581	-0.075148927	0.77578483	0.85167903	0.16861452	0.56974964	0.91899188	0.077670049	0.70785801	1.330198	-0.1131329	0.71247727	1.2995775	0.24903542	0.63220854	1.356296	0.070331942	0.68188144	1.0069819	-0.18306546	0.61256461	0.99992672	0.30262714	0.87306149	0.85175985	-0.16123061	0.73169288	0.78985581	0.34280347
312	1.244	0.40337256	0.10192501	-0.039060899	0.89465499	0.035947643	0.1006044	0.40914746	0.22855909	-0.085262995	0.75991676	0.059171187	0.13734914	0.42654283	0.24343551	-0.0043230856	0.77083379	0.082809001	0.05025174	0.36118062	0.29095972	-0.045667182	0.7004908	0.038154095	0.084128771	0.74379894	0.39482692	-0.11521341	0.82042083	0.44553608	0.16638168	0.74788911	0.38319707	0.0064650701	0.77195954	0.43381975	0.04638186	0.65762796	0.78282077	-0.10531555	0.70408439	0.8027458	0.23560822	0.74038416	0.83366174	-0.074887688	0.78110178	0.853225	0.16934271	0.57583433	0.92079575	0.077913118	0.7131629	1.332392	-0.1132542	0.71868168	1.3019383	0.24883588	0.63809236	1.3582122	0.070374504	0.68577721	1.0095671	-0.18273463	0.62047156	1.0016965	0.30331946	0.8752781	0.85219896	-0.16247891	0.74237457	0.79291547	0.34220871
313	1.248	0.41908567	0.10276279	-0.039710248	0.89458338	0.035964076	0.10063284	0.42276684	0.22948639	-0.085650641	0.75971241	0.059292227	0.13754816	0.44012879	0.24441304	-0.0047758951	0.7708088	0.083046225	0.050491358	0.37386351	0.29113264	-0.045867162	0.70042085	0.038243966	0.084307815	0.75602903	0.39828599	-0.11538812	0.8215616	0.44563954	0.16669373	0.76012098	0.38644546	0.0064350389	0.77371701	0.43447114	0.046317281	0.66400166	0.78512278	-0.10553873	0.70871102	0.80382588	0.23594828	0.74677697	0.83594052	-0.074478004	0.78641593	0.85481833	0.17004477	0.58178974	0.92253846	0.078131735	0.71845072	1.3345546	-0.11335415	0.72486764	1.3042904	0.24863402	0.64394939	1.3600993	0.070404321	0.68963161	1.0121519	-0.18244052	0.62837067	1.0034743	0.30399737	0.87746543	0.8526868	-0.16374073	0.75302339	0.79603615	0.34159359
314	1.252	0.43496393	0.10342563	-0.040473544	0.89451293	0.035979968	0.10063563	0.43641784	0.23022061	-0.086022471	0.75946746	0.059419727	0.13777327	0.45371169	0.24515522	-0.0051718911	0.77078211	0.083289194	0.050706438	0.38656354	0.29101029	-0.045967982	0.70031816	0.038340613	0.084538768	0.76817421	0.40183063	-0.1155797	0.82258188	0.44566738	0.16687383	0.77208229	0.38981921	0.0064961591	0.77534875	0.43514103	0.046291643	0.67039894	0.78742136	-0.10567463	0.71340708	0.80490556	0.23629057	0.75319803	0.83822324	-0.074041039	0.79173386	0.8564524	0.17071781	0.58762871	0.92423978	0.078328404	0.72372121	1.3366805	-0.11341788	0.73103514	1.3066257	0.24842938	0.64978056	1.3619578	0.070429997	0.69344622	1.014729	-0.1821847	0.63623534	1.0052568	0.3046738	0.8796306	0.85320751	-0.16501622	0.76362348	0.79920073	0.34095052
315	1.256	0.45100582	0.10391992	-0.041353669	0.89443884	0.035996809	0.10061603	0.45010051	0.23076848	-0.086385138	0.75925342	0.059516766	0.13797686	0.46725923	0.24567494	-0.0055005391	0.77073314	0.08353915	0.050888216	0.39927786	0.29059664	-0.046010078	0.70017823	0.038451147	0.084818898	0.78021635	0.4054543	-0.11578914	0.82346241	0.44566572	0.16698997	0.78373752	0.39331725	0.0066460211	0.77683104	0.435808	0.046358795	0.67678531	0.78971826	-0.10564605	0.71824704	0.80599144	0.23660708	0.75950719	0.84046761	-0.073662377	0.79705902	0.85811067	0.17135624	0.59342127	0.92592595	0.078498146	0.72898826	1.3387695	-0.11344819	0.73718317	1.3089347	0.24822056	0.65559033	1.3637884	0.070460164	0.69722183	1.0172858	-0.18197073	0.64402697	1.0070342	0.30536494	0.88177928	0.85375356	-0.16630418	0.77416857	0.80239615	0.34027984
316	1.26	0.46720203	0.10425272	-0.042349264	0.8943601	0.036015823	0.10058251	0.46381068	0.23113723	-0.086741254	0.7591283	0.059569487	0.13812538	0.48078109	0.2459837	-0.0057871692	0.77065399	0.083790807	0.051046611	0.41200026	0.28991529	-0.046020564	0.70002688	0.038576776	0.08509918	0.79216569	0.40913862	-0.11597779	0.82429747	0.44568795	0.16712939	0.79516908	0.39690648	0.0068483062	0.77832125	0.43640631	0.046480151	0.68320611	0.79201292	-0.10547448	0.72330554	0.80709763	0.23686332	0.76571419	0.8426687	-0.073335318	0.80239335	0.85977272	0.17195598	0.5992441	0.92760136	0.078637814	0.73426464	1.3408168	-0.11345609	0.74331318	1.3112078	0.24800883	0.66138326	1.3655838	0.070496405	0.70095815	1.0198066	-0.18180353	0.65173184	1.0087956	0.30608325	0.88391665	0.85432315	-0.16760379	0.78465945	0.80561791	0.33958853
